# xmcd
#
# Track frame offsets: 
#        150
#        35047
#        54832
#        90530
#        122845
#        147890
#
# Disc length: 2490 seconds
#
# Revision: 2
# Processed by: cddbd v1.5.2PL0 Copyright (c) Steve Scherf et al.
# Submitted via: ExactAudioCopyFreeDBPlugin 1.0
#
DISCID=4b09b806
DTITLE=Babyface - Re-Fresh Lovers [Japan]
DYEAR=1990
DGENRE=Funk
TTITLE0=It's No Crime [Indiana Jones Extended Mix]
TTITLE1=I Love You Babe [12" With Vocals]
TTITLE2=Tender Lover [The Long Mix]
TTITLE3=My Kinda Girl [Scratch Mix]
TTITLE4=Whip Appeal [The Ultimate Whip]
TTITLE5=If We Try [12" Mix]
EXTD=YEAR: 1989 ID3G: 14
EXTT0=
EXTT1=
EXTT2=
EXTT3=
EXTT4=
EXTT5=
PLAYORDER=
